<svg width="1920" height="67" viewBox="0 0 1920 67" fill="none" xmlns="http://www.w3.org/2000/svg">
<rect x="-69" width="2098" height="53" fill="#123461"/>
<ellipse cx="15.9657" cy="42" rx="28.3219" ry="25" fill="#123461"/>
<ellipse cx="72.6095" cy="42" rx="28.3219" ry="25" fill="#123461"/>
<ellipse cx="129.253" cy="42" rx="28.3219" ry="25" fill="#123461"/>
<ellipse cx="185.897" cy="42" rx="28.3219" ry="25" fill="#123461"/>
<ellipse cx="242.541" cy="42" rx="28.3219" ry="25" fill="#123461"/>
<ellipse cx="299.185" cy="42" rx="28.3219" ry="25" fill="#123461"/>
<ellipse cx="355.829" cy="42" rx="28.3219" ry="25" fill="#123461"/>
<ellipse cx="412.472" cy="42" rx="28.3219" ry="25" fill="#123461"/>
<ellipse cx="469.116" cy="42" rx="28.3219" ry="25" fill="#123461"/>
<ellipse cx="525.76" cy="42" rx="28.3219" ry="25" fill="#123461"/>
<ellipse cx="582.404" cy="42" rx="28.3219" ry="25" fill="#123461"/>
<ellipse cx="639.048" cy="42" rx="28.3219" ry="25" fill="#123461"/>
<ellipse cx="695.692" cy="42" rx="28.3219" ry="25" fill="#123461"/>
<ellipse cx="752.335" cy="42" rx="28.3219" ry="25" fill="#123461"/>
<ellipse cx="808.979" cy="42" rx="28.3219" ry="25" fill="#123461"/>
<ellipse cx="865.623" cy="42" rx="28.3219" ry="25" fill="#123461"/>
<ellipse cx="922.267" cy="42" rx="28.3219" ry="25" fill="#123461"/>
<ellipse cx="978.911" cy="42" rx="28.3219" ry="25" fill="#123461"/>
<ellipse cx="1035.55" cy="42" rx="28.3219" ry="25" fill="#123461"/>
<ellipse cx="1092.2" cy="42" rx="28.3219" ry="25" fill="#123461"/>
<ellipse cx="1148.84" cy="42" rx="28.3219" ry="25" fill="#123461"/>
<ellipse cx="1205.49" cy="42" rx="28.3219" ry="25" fill="#123461"/>
<ellipse cx="1262.13" cy="42" rx="28.3219" ry="25" fill="#123461"/>
<ellipse cx="1318.77" cy="42" rx="28.3219" ry="25" fill="#123461"/>
<ellipse cx="1375.42" cy="42" rx="28.3219" ry="25" fill="#123461"/>
<ellipse cx="1432.06" cy="42" rx="28.3219" ry="25" fill="#123461"/>
<ellipse cx="1488.71" cy="42" rx="28.3219" ry="25" fill="#123461"/>
<ellipse cx="1545.35" cy="42" rx="28.3219" ry="25" fill="#123461"/>
<ellipse cx="1601.99" cy="42" rx="28.3219" ry="25" fill="#123461"/>
<ellipse cx="1658.64" cy="42" rx="28.3219" ry="25" fill="#123461"/>
<ellipse cx="1715.28" cy="42" rx="28.3219" ry="25" fill="#123461"/>
<ellipse cx="1771.92" cy="42" rx="28.3219" ry="25" fill="#123461"/>
<ellipse cx="1828.57" cy="42" rx="28.3219" ry="25" fill="#123461"/>
<ellipse cx="1885.21" cy="42" rx="28.3219" ry="25" fill="#123461"/>
<ellipse cx="1941.86" cy="42" rx="28.3219" ry="25" fill="#123461"/>
</svg>
